<?xml version="1.0" encoding="UTF-8"?>
<svg xmlns="http://www.w3.org/2000/svg" xmlns:xlink="http://www.w3.org/1999/xlink" width="256px" height="256px" viewBox="0 0 256 256" version="1.1">
<g id="surface1">
<path style=" stroke:none;fill-rule:nonzero;fill:rgb(98.823529%,98.823529%,98.823529%);fill-opacity:1;" d="M 0 0 C 84.480469 0 168.960938 0 256 0 C 256 84.480469 256 168.960938 256 256 C 171.519531 256 87.039062 256 0 256 C 0 171.519531 0 87.039062 0 0 Z M 0 0 "/>
<path style=" stroke:none;fill-rule:nonzero;fill:rgb(2.745098%,3.137255%,3.921569%);fill-opacity:1;" d="M 23.628906 64.328125 C 55.316406 63.75 55.316406 63.75 68.851562 63.625 C 78.078125 63.535156 87.300781 63.433594 96.527344 63.238281 C 103.96875 63.082031 111.40625 62.996094 118.847656 62.957031 C 121.679688 62.929688 124.515625 62.878906 127.351562 62.800781 C 149.574219 62.214844 149.574219 62.214844 156.238281 67.410156 C 158.933594 71.089844 160.832031 74.65625 162.789062 78.769531 C 164.488281 80.996094 166.226562 83.199219 168.042969 85.332031 C 168.683594 83.832031 169.324219 82.332031 169.984375 80.785156 C 177.136719 65.96875 177.136719 65.96875 183.984375 63.183594 C 191.816406 61.679688 199.695312 62.410156 207.589844 63.015625 C 209.996094 63.121094 212.402344 63.214844 214.808594 63.300781 C 220.675781 63.53125 226.515625 63.894531 232.371094 64.328125 C 228.324219 71.734375 224.148438 79.011719 219.652344 86.152344 C 218.816406 87.484375 218.816406 87.484375 217.964844 88.84375 C 211.097656 99.738281 204.121094 110.660156 196.460938 121.015625 C 194.082031 124.375 194.082031 124.375 194.296875 127.292969 C 196.238281 131.25 198.488281 134.960938 200.863281 138.667969 C 201.414062 139.542969 201.96875 140.421875 202.539062 141.328125 C 206.476562 147.527344 210.496094 153.671875 214.527344 159.808594 C 215.03125 160.574219 215.53125 161.339844 216.050781 162.128906 C 218.582031 165.988281 221.121094 169.839844 223.667969 173.6875 C 225.074219 175.820312 225.074219 175.820312 226.507812 177.996094 C 227.351562 179.269531 228.195312 180.546875 229.066406 181.859375 C 231.054688 185.109375 231.054688 185.109375 232.371094 189.046875 C 215.472656 189.046875 198.578125 189.046875 181.167969 189.046875 C 178.570312 184.28125 175.96875 179.515625 173.292969 174.605469 C 171.34375 172.003906 171.34375 172.003906 169.355469 169.355469 C 169.355469 168.488281 169.355469 167.621094 169.355469 166.726562 C 163.433594 171.933594 159.625 177.980469 155.507812 184.675781 C 153.601562 187.734375 153.601562 187.734375 152.289062 189.046875 C 148.691406 189.164062 145.128906 189.199219 141.535156 189.175781 C 140.457031 189.171875 139.378906 189.171875 138.273438 189.167969 C 134.820312 189.160156 131.371094 189.144531 127.917969 189.128906 C 125.582031 189.121094 123.25 189.117188 120.914062 189.109375 C 115.179688 189.097656 109.445312 189.074219 103.710938 189.046875 C 105.324219 184.769531 107.113281 180.96875 109.578125 177.125 C 110.53125 175.628906 110.53125 175.628906 111.503906 174.101562 C 112.523438 172.523438 112.523438 172.523438 113.558594 170.914062 C 114.980469 168.683594 116.402344 166.453125 117.824219 164.226562 C 118.539062 163.109375 119.253906 161.992188 119.988281 160.839844 C 123.667969 155.066406 127.277344 149.246094 130.890625 143.429688 C 131.382812 142.632812 131.878906 141.839844 132.390625 141.019531 C 132.855469 140.261719 133.324219 139.503906 133.804688 138.726562 C 135.207031 136.554688 136.753906 134.484375 138.296875 132.414062 C 140.765625 128.964844 140.765625 128.964844 140.25 125.8125 C 137.550781 116.597656 133.726562 107.210938 126.03125 101.085938 C 116.453125 97.511719 105.699219 98.691406 95.671875 99.117188 C 92.886719 99.160156 90.097656 99.191406 87.3125 99.214844 C 80.519531 99.292969 73.742188 99.496094 66.953125 99.773438 C 66.953125 104.539062 66.953125 109.304688 66.953125 114.214844 C 82.984375 114.214844 99.011719 114.214844 115.527344 114.214844 C 115.527344 125.480469 115.527344 136.742188 115.527344 148.347656 C 99.5 148.347656 83.46875 148.347656 66.953125 148.347656 C 66.953125 161.777344 66.953125 175.210938 66.953125 189.046875 C 52.65625 189.046875 38.359375 189.046875 23.628906 189.046875 C 23.628906 147.890625 23.628906 106.730469 23.628906 64.328125 Z M 23.628906 64.328125 "/>
<path style=" stroke:none;fill-rule:nonzero;fill:rgb(6.27451%,6.27451%,6.666667%);fill-opacity:1;" d="M 131.28125 99.773438 C 132.148438 100.207031 133.015625 100.640625 133.90625 101.085938 C 133.90625 103.6875 133.90625 106.285156 133.90625 108.964844 C 132.609375 109.613281 132.609375 109.613281 131.28125 110.277344 C 128.65625 106.339844 128.65625 106.339844 129.066406 103.546875 C 129.96875 101.085938 129.96875 101.085938 131.28125 99.773438 Z M 131.28125 99.773438 "/>
<path style=" stroke:none;fill-rule:nonzero;fill:rgb(9.411765%,9.803922%,10.588235%);fill-opacity:1;" d="M 194.296875 129.96875 C 199.546875 136.042969 199.546875 136.042969 199.546875 140.472656 C 195.609375 139.160156 195.609375 139.160156 193.96875 135.957031 C 192.984375 132.59375 192.984375 132.59375 194.296875 129.96875 Z M 194.296875 129.96875 "/>
<path style=" stroke:none;fill-rule:nonzero;fill:rgb(77.254903%,77.64706%,77.64706%);fill-opacity:1;" d="M 166.726562 166.726562 C 167.59375 166.726562 168.460938 166.726562 169.355469 166.726562 C 169.785156 168.027344 170.21875 169.328125 170.667969 170.667969 C 164.429688 174.441406 164.429688 174.441406 161.476562 175.917969 C 162.886719 172.089844 163.8125 169.644531 166.726562 166.726562 Z M 166.726562 166.726562 "/>
</g>
</svg>
